<svg width="1590" height="1512" viewBox="0 0 1590 1512" fill="none" xmlns="http://www.w3.org/2000/svg">
<rect width="1590" height="1512" fill="white"/>
<path fill-rule="evenodd" clip-rule="evenodd" d="M471.701 1329.19C476.974 1337.2 487.346 1335.97 491.799 1329.77C542.505 1341.58 594.488 1336.92 645.899 1334.03C790.772 1328.13 936.462 1346.61 1080.75 1327.28C1096.06 1324.22 1113.87 1325.68 1126.39 1315.07C1146.43 1291.59 1142.11 1255.95 1138.92 1227.36C1113.34 1066.2 1076.98 903.558 1058.84 741.358C1057.83 725.908 1064.2 706.711 1069.9 692.187C1071.31 689.485 1080.22 686.837 1084.85 683.72C1099.04 673.534 1096.74 655.28 1084.44 644.569C1044.61 616.493 989.157 626.304 946.904 636.662C938.807 606.25 929.705 586.247 914.287 584.266C884.943 580.496 813.76 568.974 791.833 584.266C781.344 591.582 774.611 617.359 767.06 629.916C711.993 628.938 600.23 555.264 577.253 638.227C558.585 639.516 540.095 655.814 543.666 675.372C519.455 696.766 538.551 728.845 538.216 755.474C535.033 811.973 504.461 862.501 491.742 917.079C462.669 1022.93 429.763 1215.48 465.822 1318.81C465.046 1318.4 463.351 1319.01 464.449 1319.87C468.532 1321.02 469.063 1326.17 471.701 1329.19Z" fill="white"/>
<path fill-rule="evenodd" clip-rule="evenodd" d="M1104.8 1302.27C1098.04 1247.98 1093.34 1182.43 1093.28 1127.69C1093.28 1122.53 1101.28 1122.54 1101.28 1127.69C1101.34 1182.43 1106.04 1247.98 1112.8 1302.27C1113.44 1307.38 1105.43 1307.31 1104.8 1302.27M1054.7 965.626C1044.25 972.017 1030.53 967.584 1020.19 963.352C1015.48 961.425 1017.55 953.689 1022.31 955.638C1030.19 958.859 1041.69 963.601 1050 959.109C1058.29 954.625 1058.66 942.291 1058.72 934.152C1058.76 928.998 1066.76 929.002 1066.72 934.152C1066.64 945.225 1065.16 959.23 1054.7 965.626M1035.36 1214.08C1024.82 1208.68 1015.82 1201.29 1008.58 1191.91C1005.43 1187.84 1012.39 1183.86 1015.49 1187.88C1021.86 1196.13 1030.16 1202.44 1039.4 1207.18C1043.99 1209.53 1039.93 1216.43 1035.36 1214.08M984.684 934.882C966.594 1007.37 954.454 1081.16 948.504 1155.64C947.294 1170.76 946.444 1185.86 945.964 1200.97C945.484 1204.91 945.024 1208.86 944.594 1212.81C942.964 1227.75 941.714 1242.93 941.824 1257.97C941.874 1264.72 942.084 1271.44 942.544 1278.17C941.744 1275.92 941.004 1273.66 940.284 1271.41C938.814 1266.8 937.844 1262.02 936.344 1257.44C935.104 1253.65 933.504 1250.02 932.014 1246.35V1246.34C932.464 1231.31 931.444 1216.14 930.924 1201.18C930.254 1181.8 929.424 1162.44 928.994 1143.05C928.134 1104.27 928.564 1065.46 929.964 1026.7C932.774 948.602 939.874 870.873 947.034 793.092C949.024 771.462 951.164 749.842 952.644 728.171C954.134 706.272 954.734 684.332 954.904 662.373C954.914 660.792 952.514 660.373 952.074 661.902C951.684 656.692 950.994 651.492 949.844 646.462C967.094 657.462 985.284 666.972 1003.11 676.972C1012.5 682.242 1021.85 687.602 1031.53 692.322C1036.85 694.921 1042.22 697.312 1047.7 699.572C1053.38 701.912 1058.81 705.132 1065.06 703.501C1065.6 703.362 1066.11 703.162 1066.6 702.902C1065.89 704.251 1065.18 705.592 1064.5 706.953C1062.14 711.642 1059.89 716.352 1057.71 721.102C1057.13 721.532 1056.62 722.123 1056.22 722.892C1055.16 724.962 1054.13 727.052 1053.13 729.171C1052.93 728.982 1052.73 728.792 1052.53 728.602C1051.69 727.812 1050.53 729.001 1051.27 729.862C1051.61 730.251 1051.94 730.632 1052.27 731.022C1045.75 745.052 1040.45 759.802 1034.99 774.203C1028.28 791.902 1021.92 809.732 1015.93 827.682C1004.12 862.992 993.704 898.762 984.684 934.882M726.054 1197.96C692.713 1215.81 661.557 1237.15 631.591 1260.17C627.506 1263.3 623.526 1256.35 627.553 1253.26C657.519 1230.24 688.676 1208.9 722.017 1191.05C726.559 1188.62 730.595 1195.53 726.054 1197.96M613.444 988.839C611.711 988.71 610.027 987.705 609.587 985.903C606.886 974.845 604.771 962.799 607.283 951.52C608.403 946.489 616.114 948.63 614.997 953.646C613.016 962.54 614.59 972.154 616.647 981.023C645.726 982.296 674.415 971.861 702.236 964.854C707.239 963.594 709.352 971.312 704.363 972.568C674.851 980 644.325 991.125 613.444 988.839M1192.34 1283.8C1192.37 1283.73 1192.4 1283.65 1192.42 1283.58C1194.13 1278.4 1194.17 1272.38 1194.36 1266.95C1194.69 1257.29 1194.34 1247.61 1193.47 1237.98C1191.63 1217.71 1187.67 1197.77 1182.94 1178C1173.57 1138.84 1160.33 1100.74 1153.14 1061.05C1139.03 983.142 1142.38 902.022 1114.69 826.873C1103.18 795.632 1086.74 765.602 1064.4 740.782C1066.03 735.822 1067.62 730.852 1069.17 725.862C1071.88 717.182 1074.65 708.222 1076.32 699.282C1076.36 699.042 1076.41 698.792 1076.44 698.542C1085.95 694.442 1094.6 686.712 1096.08 676.432C1096.72 671.992 1095.98 667.072 1094.06 662.782C1097.98 659.162 1100.5 654.462 1099.9 648.162C1098.78 636.302 1084.93 633.251 1075.29 630.932C1064.33 628.302 1052.96 627.572 1041.75 628.812C1036.09 629.432 1030.49 630.472 1025.02 632.032C1020.27 633.382 1015.1 634.772 1011.29 638.032C1010.84 638.412 1011.21 639.152 1011.75 639.152C1019.46 639.123 1027.14 636.292 1034.93 635.921C1043.09 635.542 1051.23 636.212 1059.23 637.892C1067.05 639.532 1074.85 641.932 1081.96 645.642C1083.96 646.692 1086.89 647.402 1084.54 649.522C1082.82 651.072 1079.44 651.203 1077.23 651.432C1072.34 651.942 1068.12 654.802 1067.5 660.022C1066.95 664.632 1069.7 669.852 1074.6 670.892C1074.87 670.953 1075.12 671.022 1075.34 671.112C1075.47 671.362 1075.67 671.572 1075.65 671.232C1075.65 671.232 1075.66 671.222 1075.66 671.232C1075.78 671.962 1075.82 672.251 1075.82 672.302C1075.79 672.242 1075.74 671.992 1075.7 671.792C1075.73 671.972 1075.79 672.262 1075.87 672.692C1075.76 672.222 1075.85 673.373 1075.76 673.552C1073.16 678.352 1065.47 679.703 1060.99 681.772C1060.12 682.171 1059.37 682.642 1058.73 683.171C1057.67 682.802 1056.59 682.432 1055.5 682.022C1050.13 680.012 1044.77 678.062 1039.33 676.251C1028.83 672.742 1018.2 669.612 1007.7 666.092C987.824 659.432 968.604 651.022 949.094 643.402C948.474 641.102 947.754 638.852 946.904 636.662C946.734 636.203 945.914 636.052 945.824 636.662C945.524 638.602 945.284 640.552 945.084 642.512C945.004 642.692 944.984 642.892 945.024 643.082C943.894 654.482 944.194 666.152 943.614 677.542C942.894 691.742 940.884 705.842 940.314 720.052V720.312C938.214 732.442 936.314 744.612 934.594 756.822C932.664 756.222 930.454 756.342 928.194 757.552C912.214 766.082 894.254 770.832 876.184 771.892C867.084 772.421 858.074 772.123 849.024 771.072C843.074 770.392 837.214 769.152 831.344 767.972C834.434 755.022 837.754 742.132 841.504 729.373C844.594 718.882 848.034 708.442 852.284 698.352C856.574 688.162 861.914 678.432 866.884 668.552C869.174 663.982 866.474 656.992 860.524 657.472C858.764 657.612 857.004 657.722 855.234 657.802C838.014 658.623 820.104 656.703 803.104 654.992C783.754 653.032 764.144 651.001 744.964 647.812C743.544 647.582 742.964 649.512 744.364 649.982C753.464 653.042 762.454 656.501 771.784 658.792C781.384 661.162 791.044 663.322 800.784 665.012C810.114 666.623 819.484 667.972 828.884 669.112C835.014 669.862 841.214 670.242 847.384 670.742C839.074 684.022 833.344 699.001 828.354 713.751C821.944 732.692 817.234 752.182 812.624 771.632C802.764 813.322 794.634 855.432 788.274 897.802C783.714 928.182 780.024 958.682 777.254 989.262C776.434 979.972 775.434 970.712 774.304 961.462C770.524 930.751 765.004 900.242 757.624 870.192C758.284 869.032 758.594 867.642 758.374 866.292C757.044 858.032 753.544 850.842 750.474 843.182C747.424 832.482 744.134 821.852 740.594 811.302C736.574 796.932 732.064 782.782 726.294 768.962C721.884 758.432 716.854 748.171 711.254 738.222C704.564 724.312 697.214 710.703 689.144 697.692C688.724 696.482 688.044 695.352 687.074 694.402C685.604 692.082 684.114 689.792 682.594 687.522C681.604 686.042 678.764 686.942 679.514 688.822C679.864 689.703 680.214 690.582 680.574 691.453C647.704 683.232 615.474 695.802 584.164 705.082C576.264 707.432 568.284 709.552 560.184 711.082C553.814 712.282 546.394 713.742 540.044 712.421C535.794 711.542 533.914 709.612 535.984 705.072C538.124 700.373 543.964 697.282 549.034 695.203C550.944 694.792 552.824 694.062 554.634 692.962C558.854 690.402 560.704 685.062 558.714 680.512C556.904 676.402 551.624 672.862 546.954 674.742C546.284 675.012 545.624 675.272 544.964 675.532C544.894 675.432 544.814 675.292 544.744 675.092C544.074 673.262 543.784 675.453 544.074 672.832C544.554 668.552 549.084 664.662 552.184 662.212C559.894 656.102 571.034 651.582 580.984 653.892C581.734 654.062 582.484 654.272 583.224 654.532C593.474 658.082 598.464 643.322 590.274 637.822C589.774 637.492 589.144 637.072 588.454 636.582C585.044 634.212 580.054 630.222 581.414 626.623C583.094 622.152 593.004 619.582 596.754 618.062C610.314 612.562 624.964 609.442 639.584 608.802C654.294 608.162 669.194 609.782 683.384 613.751C690.344 615.692 697.494 618.642 704.074 621.623C709.984 624.292 722.844 627.822 723.664 635.302C723.844 636.953 726.194 637.512 726.704 635.712C730.734 621.352 715.094 612.082 704.774 606.152C698.004 602.251 690.324 599.822 682.894 597.432C675.774 595.132 668.504 593.442 661.084 592.421C645.154 590.242 629.034 590.522 613.234 593.582C598.844 596.373 582.834 601.132 571.204 610.392C564.064 616.072 560.834 625.112 563.704 633.932C563.804 634.222 563.904 634.522 564.004 634.812C551.154 637.112 538.994 644.472 530.864 654.732C524.184 663.162 520.684 674.892 526.664 684.703C526.414 684.882 526.164 685.072 525.924 685.272C520.224 689.832 515.984 696.453 514.724 703.692C512.254 717.972 520.884 727.962 532.954 731.782C529.964 734.703 527.094 737.802 524.284 740.902C517.994 747.852 511.984 755.421 506.684 763.142C495.944 778.782 486.764 795.812 478.734 812.972C462.224 848.212 451.814 886.142 446.294 924.602C443.514 943.982 441.654 963.462 440.944 983.022C440.124 1005.32 440.954 1027.63 440.524 1049.94C440.104 1071.38 437.734 1092.3 432.944 1113.2C428.354 1133.19 422.234 1152.78 416.694 1172.51C410.444 1194.73 403.564 1216.85 400.264 1239.76C398.594 1251.42 397.394 1263.11 398.324 1274.9C399.264 1286.91 403.624 1297.18 407.644 1308.35C408.664 1311.2 411.774 1312.35 414.264 1311.74C414.824 1317.09 416.844 1322.31 419.854 1326.83C426.244 1336.41 436.084 1342.52 447.354 1344.74C460.054 1347.23 473.144 1346.64 486.004 1346.18C499.954 1345.68 513.914 1345.23 527.864 1344.65C542.469 1344.05 557.073 1343.43 571.678 1342.81C571.195 1327.84 570.619 1312.87 569.968 1297.91C566.447 1217.03 560.902 1136.1 560.755 1055.11C560.472 1054.94 560.194 1054.74 559.928 1054.48C553.353 1048.13 545.281 1043.96 537.697 1038.98C533.405 1036.17 537.417 1029.24 541.735 1032.07C548.129 1036.27 554.792 1039.99 560.784 1044.69C560.819 1036.26 560.893 1027.83 561.06 1019.4C561.162 1014.25 569.162 1014.25 569.06 1019.4C568.558 1044.81 568.726 1070.23 569.301 1095.64C571.162 1177.97 577.012 1260.16 579.676 1342.46C618.876 1340.79 658.078 1339.1 697.284 1337.67C729.174 1336.51 761.064 1335.35 792.954 1334.19C799.644 1333.95 803.404 1329.17 804.224 1322.92C805.724 1311.42 802.904 1299.53 796.524 1289.86C795.864 1288.86 795.084 1287.97 794.214 1287.21C794.364 1280.32 794.644 1273.42 794.254 1266.53C793.674 1256.01 792.804 1245.49 792.044 1234.98C790.504 1213.93 789.314 1192.84 788.844 1171.74C787.884 1129.54 788.584 1087.3 790.974 1045.16C795.764 960.972 806.914 877.322 825.164 794.972C826.494 788.972 827.834 782.972 829.224 776.982C843.414 784.352 860.674 787.001 876.184 787.102C895.624 787.222 914.634 782.751 932.194 774.623C932.074 775.532 931.954 776.432 931.844 777.342C926.944 816.342 922.814 855.421 919.214 894.552C912.034 972.562 907.634 1050.89 908.244 1129.25C908.414 1150.96 909.244 1172.6 910.274 1194.28C911.324 1216.33 912.934 1239.63 919.074 1260.9C919.754 1263.25 921.264 1264.6 923.004 1265.09C923.094 1268.19 923.294 1271.3 923.514 1274.36C924.224 1284.31 926.254 1304.98 930.594 1314C934.824 1322.8 941.874 1329.78 950.864 1333.62C962.284 1338.49 974.634 1337.09 986.694 1336.31C1039.13 1332.89 1091.53 1328.31 1143.94 1324.29C1151.24 1323.73 1158.54 1323.18 1165.83 1322.61C1172.32 1322.11 1179.03 1321.67 1184.79 1318.3C1191.34 1314.47 1196.45 1295.66 1194.19 1287.88C1193.78 1286.46 1193.16 1285.06 1192.34 1283.8" fill="black"/>
<path fill-rule="evenodd" clip-rule="evenodd" d="M967.419 212.024C913.95 196.331 730.066 212.417 725.519 215.816C718.078 221.999 681.884 241.617 676.252 246.096C625.327 300.07 673.874 380.223 670.138 445.335C670.376 468.431 660.534 489.519 656.01 511.738C654.1 523.382 654.521 535.426 660.59 545.88C671.26 564.56 693.793 568.347 712.119 575.879C721.238 579.805 729.758 585.372 737.568 591.463C790.152 637.98 819.422 669.834 896.149 659.34C896.541 663.003 899.786 666.602 903.809 664.965C913.229 661.129 922.582 657.06 932.084 653.424C934.115 658.318 939.949 659.715 943.901 655.393L943.924 655.424C961.513 641.156 972.699 621.647 981.007 600.762C986.821 588.713 991.582 576.141 995.22 563.195C995.631 561.73 995.577 560.421 995.205 559.294C1011.99 501.451 1018.2 440.487 1013.78 380.43C1012.89 368.039 1010.55 355.484 1011.12 343.041C1011.64 331.799 1016.49 321.165 1020.18 310.695C1039.22 266.186 1010.12 226.038 967.419 212.024Z" fill="white"/>
<path fill-rule="evenodd" clip-rule="evenodd" d="M974.144 139.756L974.715 139.314C980.879 134.478 986.692 128.139 995.384 130.516C1002.51 132.466 1006.11 138.366 1007.64 145.496C1009.81 143.226 1011.92 140.876 1013.98 138.446C1019.58 131.846 1032.09 135.266 1033.76 143.676C1037.14 160.616 1037.31 177.856 1034.02 194.826C1033.52 197.396 1032.93 199.956 1032.24 202.486C1035.99 197.816 1039.48 192.946 1042.61 187.816C1046 182.246 1053.66 185.006 1054.19 190.956C1054.33 192.496 1054.41 194.056 1054.43 195.626C1056.82 196.466 1058.47 198.926 1057.84 201.946C1054.36 218.566 1049.95 234.956 1044.65 251.066C1053.17 246.546 1062.72 243.866 1071.71 247.056C1085.99 252.136 1089.39 267.716 1086.6 281.126C1083.09 297.986 1072.05 312.096 1057.81 321.346C1056.12 323.886 1054.45 326.446 1052.86 329.056C1052.83 336.426 1051.49 343.776 1048.79 350.606C1045.75 358.276 1040.39 364.906 1033.79 369.946C1031.48 374.997 1025.33 378.687 1019.94 377.664L1019.65 377.606L1019.64 377.616C1021.02 382.556 1022.21 387.546 1023.24 392.546C1031.22 431.284 1027.18 471.608 1019.91 510.127L1019.67 511.356C1013.14 545.636 1005.54 581.136 990.774 612.966C977.414 641.746 954.764 667.056 922.394 673.336C884.314 680.726 842.164 669.016 809.414 649.486C797.544 642.406 808.424 623.746 820.244 630.946C837.304 641.326 855.834 648.576 875.434 652.396C893.754 655.956 914.244 657.166 931.814 649.786C956.284 639.506 970.824 614.396 980.024 590.756C985.444 576.806 989.504 562.406 993.284 547.946C998.154 529.356 1002.69 510.646 1006.1 491.726C1012.45 456.436 1014.51 419.786 1007.79 384.396C1005.65 373.106 1002.62 361.746 998.674 350.826C998.054 350.056 997.464 349.196 996.934 348.256C992.804 341.016 989.954 332.786 986.884 324.956C984.194 320.286 981.254 315.796 978.134 311.406C973.469 307.821 969.026 303.988 964.956 299.806C976.777 292.152 987.208 282.57 994.713 270.364C995.951 268.351 995.165 266.427 993.698 265.342C987.705 272.839 979.947 279.188 971.787 284.813C967.607 288.393 963.105 291.609 958.387 294.515C955.016 295.182 951.608 295.64 948.304 296.016C938.894 297.086 929.434 296.686 920.074 295.436C899.834 292.736 814.236 269.162 778.154 278.326C770.638 280.235 767.094 286.976 763.114 293.306C759.662 298.812 755.271 303.37 750.003 307.122L749.414 307.536C739.114 314.666 718.405 337.222 709.7 357.354C698.46 383.346 687.664 461.236 692.634 461.906C705.634 463.666 712.834 470.506 723.424 477.846C724.124 478.326 723.714 479.626 722.814 479.296C715.824 476.776 708.264 475.286 700.934 474.066C694.304 472.956 687.324 472.756 680.924 475.126C671.104 478.766 666.314 486.996 664.344 496.276C663.574 499.906 663.234 503.696 663.194 507.446L663.189 508.534C663.194 520.357 665.399 533.464 673.984 542.186C677.634 545.896 682.584 548.396 687.764 549.086C693.434 549.846 696.934 547.286 702.144 545.956C708.144 544.426 712.824 548.376 712.264 553.526C713.534 554.636 714.764 555.806 715.984 556.996L715.986 557.001L715.994 557.006C716.794 557.366 717.554 557.846 718.244 558.426C719.374 559.386 720.324 560.436 721.084 561.566C722.774 561.896 724.394 562.836 725.724 564.556C728.464 568.086 730.994 571.656 733.344 575.296C737.554 579.766 741.744 584.246 745.874 588.796C750.846 594.265 755.685 599.858 760.556 605.419L762.994 608.196C765.624 611.186 768.244 614.176 770.864 617.176L771.646 618.057C774.282 621.008 776.302 623.187 776.584 627.436C776.784 630.586 773.394 632.726 770.584 632.006C766.252 630.889 764.241 627.488 761.645 624.114L757.724 619.085V619.085L754.034 614.346C752.204 611.986 750.354 609.636 748.514 607.286C747.964 611.616 743.384 615.106 739.204 615.296L738.23 615.334C728.414 615.66 716.485 614.275 709.014 607.356C705.654 610.746 701.474 613.416 696.324 615.016C684.624 618.656 672.664 612.206 667.934 602.396C658.764 606.326 648.404 607.116 638.494 604.226C632.778 602.551 630.802 595.427 634.785 591.067L634.964 590.876L635.01 590.824C634.188 589.755 633.736 588.447 633.663 587.022C633.574 585.292 634.835 583.458 634.575 581.843C633.583 575.684 623.539 580.247 620.347 581.581C619.737 581.835 619.165 581.956 618.631 581.975C613.696 583.412 608.329 576.928 610.914 571.576C616.704 559.616 622.354 547.566 628.214 535.626C627.474 535.876 626.714 536.106 625.964 536.296C615.434 538.996 602.664 533.816 605.094 521.126C605.654 518.146 608.354 516.106 611.034 515.186C616.254 513.386 620.174 514.686 624.194 513.006C628.724 511.126 633.454 507.676 637.434 504.426C641.684 500.966 645.354 497.076 648.604 492.856C649.904 486.726 652.154 480.866 655.754 475.826C655.974 475.526 656.194 475.226 656.424 474.936C633.338 469.432 636.361 446.727 626.177 426.605L625.317 424.937C618.4 411.478 612.366 396.303 615.854 380.976C616.474 378.266 617.374 375.676 618.534 373.256C616.684 373.486 614.824 373.696 612.974 373.906C608.724 374.386 604.404 368.906 606.094 364.876C606.984 362.766 607.964 360.726 609.024 358.746C611.964 353.286 615.574 348.326 619.824 343.846C612.684 343.656 605.534 343.656 598.474 342.836C591.804 342.066 584.794 338.416 585 330.726C585.206 323.394 591.639 317.844 597.604 314.267C603.475 306.458 610.922 299.968 619.345 295.145C617.679 294.771 615.991 294.493 614.275 294.322L613.414 294.246C608.604 293.866 604.284 292.546 599.924 290.536C596.024 288.736 596.084 283.276 598.634 280.526C606.878 271.614 619.23 274.516 628.841 279.623C628.172 278.774 627.439 277.956 626.64 277.173L626.153 276.708C621.431 272.311 628.518 265.255 633.224 269.637C634.711 271.022 636.043 272.527 637.231 274.122L637.344 273.886V273.886C643.562 261.274 652.656 249.986 663.415 240.94L665.944 238.838C685.346 222.631 691.332 214.95 717.134 217.336C716.034 212.649 716.142 207.377 716.39 203.041L716.424 202.456C717.414 186.156 723.424 166.646 739.324 159.326C743.454 157.436 748.134 160.526 747.034 165.256C746.264 168.606 745.324 171.866 744.154 175.036C747.624 171.386 751.344 167.976 755.284 164.836C771.344 152.036 792.804 141.026 813.914 144.626C825.514 146.616 834.614 153.896 844.324 159.976C854.084 166.096 864.984 169.726 876.414 171.036C892.384 172.876 908.414 171.026 924.204 168.106C935.054 163.376 945.584 157.836 955.864 151.866C962.184 148.196 968.334 144.186 974.144 139.756ZM690.605 493.786C693.985 492.916 697.775 492.926 701.165 493.776C709.915 495.976 718.055 503.296 718.565 512.526C718.795 516.696 715.435 520.686 711.535 521.756C707.115 522.976 703.315 520.816 700.735 517.356C697.965 513.656 697.275 509.646 693.885 506.286L693.103 505.525C690.222 502.769 685.864 499.207 681.865 499.846C681.275 499.936 680.835 499.136 681.435 498.816C684.695 497.036 686.835 494.746 690.605 493.786ZM736.055 450.316C737.598 449.056 739.637 450.534 738.911 452.346L738.855 452.476C737.025 456.336 739.175 460.866 741.395 464.096C743.305 466.886 739.695 469.536 737.155 468.336C730.015 464.946 730.385 454.916 736.055 450.316ZM762.155 334.346C762.025 333.406 763.275 333.016 763.595 333.946C768.925 349.416 770.455 363.116 769.585 379.476L769.503 380.928C768.561 396.686 765.801 413.364 756.265 426.306C754.055 429.296 749.535 427.536 750.265 423.776C753.195 408.726 758.825 394.436 761.015 379.206C763.305 363.286 764.335 350.276 762.155 334.346ZM712.375 390.576C713.155 386.446 719.505 382.196 722.715 386.346C723.795 387.756 722.525 389.486 721.225 390.006C720.005 390.486 718.915 389.826 717.715 390.066C716.744 390.262 716.035 390.867 715.562 391.695L715.465 391.876C714.525 393.676 712.045 392.336 712.375 390.576ZM709.775 357.676C712.055 353.456 717.305 350.766 721.795 353.396C723.275 354.266 722.695 356.796 720.895 356.716L719.829 356.673C716.627 356.556 713.426 356.621 710.735 358.646C710.135 359.096 709.475 358.246 709.775 357.676ZM717.791 242.428C705.002 236.678 692.283 241.869 681.84 249.965C680.976 250.635 680.557 251.417 680.465 252.203C687.437 249.488 694.86 247.708 701.956 246.239C707.758 245.037 713.615 244.226 719.479 243.906C719.151 243.317 718.612 242.797 717.791 242.428Z" fill="black"/>
<path fill-rule="evenodd" clip-rule="evenodd" d="M905.814 466.367C913.366 470.957 924.872 481.66 916.748 493.04C907.186 503.073 893.419 491.569 886.634 486.366C880.343 482.334 873.275 492.704 879.112 497.413C928.136 533.708 948.031 467.567 909.634 460.97C905.406 460.243 903.836 464.947 905.814 466.367ZM837.588 378.83L839.465 378.502L840.428 378.339C846.052 377.409 852.718 376.787 856.603 381.201C858.782 383.677 859.532 388.279 856.603 390.649C851.451 394.819 845.755 393.203 839.581 393.556C834.493 393.848 829.603 394.69 824.702 396.091C813.95 399.164 805.189 404.774 796.006 410.934C794.801 411.742 793.571 410.201 794.146 409.074C799.447 398.691 809.72 390.162 820.01 384.963C825.502 382.188 831.512 379.886 837.588 378.83ZM887.325 522.271C903.757 523.464 939.367 515.62 954.153 527.386C1009.88 596.973 788.95 614.864 812.81 537.877C828.007 512.984 862.962 522.989 887.325 522.271ZM884.508 564.28C880.444 563.949 875.512 567.168 874.319 569.655C873.126 572.143 873.587 577.4 873.623 578.311C880.728 579.027 887.895 579.136 895.02 578.669C893.169 572.546 893.109 565.207 884.508 564.28ZM917.314 574.552C916.172 566.952 910.736 565.152 906.336 566.293C901.835 567.459 899.193 572.64 899.479 577.253C899.498 577.571 899.314 577.841 899.193 578.097C905.311 577.374 911.372 576.184 917.314 574.552ZM866.92 565.656C864.358 561.758 858.236 559.877 854.315 560.564C847.912 561.912 847.154 570.048 847.154 571.706C853.057 573.956 859.324 575.45 865.316 576.64C866.519 576.878 867.725 577.091 868.933 577.292L869.012 576.304C869.158 574.187 869.266 569.224 866.92 565.656ZM939.349 565.013C932.784 554.856 918.672 562.128 919.838 573.224C921.092 572.829 922.34 572.416 923.582 571.983C928.74 570.185 934.398 568.048 939.349 565.013ZM887.664 530.017C878.832 529.222 871.587 529.49 865.827 530.558L865.652 532.482C865.015 539.153 864.193 545.712 867.696 548.396C870.541 550.576 879.984 550.368 886.316 548.79C887.88 548.396 889.913 534.56 887.664 530.017ZM901.321 529.222C899.905 535.797 899.24 543.78 902.082 546.151C905.083 548.654 914.745 548.315 917.271 546.647C919.482 545.188 919.426 538.474 918.605 530.936C913.712 529.783 905.192 529.222 901.321 529.222ZM861.921 530.624L859.029 530.65L857.392 530.672C853.253 530.745 848.787 530.984 844.566 531.905C836.18 550.028 866.805 553.156 862.075 531.294L861.921 530.624ZM922.501 531.061L922.448 532.088C922.196 537.178 922.363 543.882 925.183 545.692C929.333 548.355 937.126 547.841 941.347 535.523C939.95 531.848 925.134 531.33 922.501 531.061ZM841.224 423C842.997 423 844.693 423.602 846.237 424.716C847.758 425.812 849.134 427.412 850.28 429.407C852.449 433.183 853.805 438.396 853.805 444.16C853.805 449.925 852.449 455.138 850.28 458.914C849.134 460.909 847.758 462.509 846.237 463.605C844.693 464.718 842.997 465.32 841.224 465.32C839.451 465.32 837.755 464.718 836.21 463.605C834.69 462.509 833.314 460.909 832.168 458.914C829.999 455.138 828.643 449.925 828.643 444.16C828.643 438.396 829.999 433.183 832.168 429.407C833.314 427.412 834.69 425.812 836.21 424.716C837.755 423.602 839.451 423 841.224 423ZM953.464 423C955.237 423 956.933 423.602 958.478 424.716C959.998 425.812 961.374 427.412 962.52 429.407C964.689 433.183 966.045 438.396 966.045 444.16C966.045 449.925 964.689 455.138 962.52 458.914C961.374 460.909 959.998 462.509 958.478 463.605C956.933 464.718 955.237 465.32 953.464 465.32C951.691 465.32 949.995 464.718 948.45 463.605C946.93 462.509 945.554 460.909 944.408 458.914C942.239 455.138 940.883 449.925 940.883 444.16C940.883 438.396 942.239 433.183 944.408 429.407C945.554 427.412 946.93 425.812 948.45 424.716C949.995 423.602 951.691 423 953.464 423ZM938.193 374.179L939.63 374.473L940.583 374.676C956.083 378.009 975.733 384.582 982.988 399.631C983.271 401.803 982.972 402.268 982.73 402.572L982.649 402.673C982.45 402.933 982.29 403.291 981.349 403.587C981.088 403.525 980.824 403.459 980.557 403.389C977.163 402.499 974.477 401.274 971.877 400.002L969.058 398.613C965.788 397.01 962.488 395.465 958.992 394.324C951.53 391.89 943.854 390.175 936.06 389.26C934.37 389.061 932.744 388.491 931.46 387.514C930.242 386.587 929.311 385.302 928.887 383.595C928.337 381.386 928.495 379.714 929.681 377.721C930.572 376.224 931.847 375.187 933.311 374.591C934.804 373.984 936.504 373.841 938.193 374.179Z" fill="black"/>
</svg>
