<svg width="1590" height="1512" viewBox="0 0 1590 1512" fill="none" xmlns="http://www.w3.org/2000/svg">
<rect width="1590" height="1512" transform="matrix(-1 0 0 1 1590 0)" fill="white"/>
<path fill-rule="evenodd" clip-rule="evenodd" d="M809.793 631.173C785.108 612.376 723.135 603.923 696.789 622.022C670.767 640.197 667.93 669.588 655.804 696.626C644.363 691.231 625.47 698.958 622.153 709.574C618.039 714.581 617.854 728.648 615.017 735.379C491.575 755.028 472.834 851.267 457.976 960.525C438.32 1071.39 393.699 1182.02 413.07 1296.11C410.546 1299.76 408.556 1303.31 406.716 1307.52C402.307 1315.03 407.986 1325.65 416.879 1325.23C428.39 1324.22 439.787 1322.84 451.352 1322.41C483.412 1321.3 515.501 1321.43 547.573 1321.84L551.946 1321.9C713.579 1323.91 875.203 1327.87 1036.84 1328.93C1042.71 1328.93 1045.58 1323.67 1044.8 1318.49C1043.22 1308.04 1041.76 1297.59 1040.23 1287.14C1078.46 1297.24 1119.1 1299.78 1157.23 1288.2C1159.9 1285.49 1151.01 1286.96 1149.61 1286.55C1184.69 1262.57 1174.21 1212.06 1171.11 1175.69C1151.78 1051.04 1144.97 913.118 1070.3 806.751C1037.99 763.343 990.635 728.975 936.216 721.242L934.706 721.035C918.794 718.914 901.061 718.23 887.148 709.574C871.501 697.083 864.833 674.002 848.372 673.786C842.936 673.715 835.541 680.591 827.584 685.26C826.99 674.989 821.455 666.322 820.233 658.358L820.134 657.677C818.859 648.393 820.605 640.04 809.793 631.173ZM544.505 963.818C579.196 939.719 668.809 951.828 670.86 953.177C675.377 956.148 677.322 956.411 679.765 960.269C682.177 960.589 684.587 960.921 686.995 961.263C691.826 962.841 688.246 968.783 682.666 966.663C686.022 981.137 676.145 991.431 672.213 1005.74C670.936 1010.39 672.167 1018.74 672.213 1023.49C671.832 1029.54 665.14 1036.69 666.255 1042.77C670.22 1064.35 691.738 1085.41 682.666 1106.35C676.656 1118.18 658.58 1124.21 646.562 1128.23C621.663 1137.78 578.279 1127.87 563.812 1106.35C556.096 1094.88 547.156 1065.93 542.555 1056.95L541.535 1042.71C539.02 1007.3 536.783 969.183 544.505 963.818Z" fill="white"/>
<path fill-rule="evenodd" clip-rule="evenodd" d="M854.416 671.698C852.021 669.577 848.477 672.242 849.999 675.107C853.419 681.546 856.927 687.647 861.517 693.339C864.3 696.79 867.281 700.054 870.302 703.282C862.549 709.989 855.9 718.316 849.621 726.12C841.592 736.101 834.001 746.505 824.988 755.638C816.099 764.645 806.27 770.942 794.387 775.14L791.986 775.974C780.048 780.165 767.289 785.825 760.56 797.128C759.233 799.357 761.905 802.111 764.151 800.72C775.844 793.48 789.583 792.024 802.311 787.24C814.606 782.619 825.324 775.507 834.794 766.43C844.248 757.368 852.186 747.058 860.466 736.966C868.654 726.987 877.47 718.464 887.155 710.021C902.1 720.075 919.16 724.45 936.507 728.747L938.401 729.216C955.769 733.516 973.044 738.51 989.338 745.998C1003.7 752.599 1017.83 760.482 1029.54 771.224C1041.96 782.624 1051.63 797.184 1060.47 811.423C1080.27 843.279 1094.18 878.179 1106.44 913.503C1119.18 950.245 1129.84 987.723 1138.44 1025.65C1142.82 1044.94 1146.37 1064.36 1149.29 1083.93C1150.7 1093.35 1151.95 1102.79 1153.04 1112.25C1154.21 1122.36 1154.48 1132.75 1157.58 1142.47C1158.91 1146.63 1162.05 1148.36 1165.19 1148.21L1165.83 1156.19C1166.67 1166.83 1167.46 1177.47 1167.73 1188.18C1168.17 1205.97 1167.97 1223.72 1166.69 1241.48L1166.51 1243.9C1165.5 1256.87 1163.26 1271.43 1153.51 1280.92C1143.41 1290.75 1127.89 1293.84 1114.29 1294.02C1082.6 1294.43 1052.1 1279.46 1024.06 1266.33C995.18 1252.8 967.091 1237.78 939.675 1221.5C925.713 1213.21 911.902 1204.64 898.267 1195.82C891.576 1191.49 884.932 1187.09 878.338 1182.61C874.561 1180.05 870.982 1177.24 867.137 1174.97C869.021 1173.22 869.862 1170.46 868.284 1168.05C879.399 1158.4 884.025 1141.18 884.566 1127.25C885.003 1116.01 883.348 1104.8 882.042 1093.66C881.383 1088.04 880.569 1082.43 879.724 1076.84C879.39 1074.63 879.135 1072.27 878.745 1069.94C908.758 1086.43 939.612 1101.12 971.283 1114.17C987.517 1120.86 1003.96 1126.87 1020.63 1132.38L1024.01 1133.49C1039.8 1138.66 1055.97 1143.55 1072.3 1146.5C1073.17 1146.66 1073.88 1145.37 1072.95 1144.96C1057.04 1137.94 1040.57 1132.02 1024.42 1125.55L1021.77 1124.47V1124.47C1022.07 1124.45 1022.39 1124.41 1022.72 1124.33C1032.19 1122.05 1041.59 1118.52 1050.88 1115.56C1059.5 1112.8 1069.19 1111.07 1077.25 1106.92C1077.87 1106.6 1077.52 1105.74 1076.92 1105.7C1067.86 1105.07 1058.03 1107.71 1049.15 1109.26L1045.81 1109.85C1040.22 1110.83 1034.51 1111.89 1028.95 1113.27C1028.74 1111.41 1027.7 1109.54 1026.22 1108.44C1009.93 1096.37 1011.58 1072 1009.84 1054.02L1008.55 1040.68C1006.27 1017.32 1003.87 993.969 1000.21 970.788C1000.02 969.55 998.103 969.905 998.095 971.074C997.906 999.809 1000.08 1028.41 1001.16 1057.1L1001.33 1061.81C1001.93 1079.51 1002.4 1097.89 1013.55 1111.51C1011.99 1110.6 1009.89 1110.6 1008.62 1112.11C1007.07 1113.95 1006.17 1116.03 1006.2 1118.06C996.128 1113.84 986.097 1109.5 976.115 1105.08C944.022 1090.86 912.602 1074.95 882.013 1057.74C878.721 1055.88 875.592 1057.34 873.964 1059.78L873.729 1059.75C873.689 1059.74 873.65 1059.74 873.609 1059.74L873.376 1059.73C873.367 1059.73 873.358 1059.73 873.35 1059.73C869.044 1057.36 863.178 1059.05 859.483 1062.5C859.374 1062.6 859.281 1062.72 859.184 1062.83C854.506 1060.73 850.138 1057.89 846.174 1054.3C838.062 1046.94 831.191 1037.85 825.201 1028.74C814.17 1011.95 804.8 993.277 789.899 979.456C777.792 968.227 762.782 961.236 747.035 956.847C747.101 956.387 746.925 955.897 746.607 955.571C745.798 954.742 745.221 954.455 744.176 954.958C744.093 954.999 744.043 955.055 744.009 955.115L742.472 952.49C741.633 951.065 740.772 949.63 740.474 949.253C738.686 947.002 736.846 944.768 734.978 942.581C731.811 938.878 728.202 935.224 724.023 932.656C714.873 927.035 705.254 930.216 695.847 933.288C690.163 935.145 684.498 937.062 678.824 938.947L678.238 939.138C674.008 940.497 669.057 941.686 667.165 946.169C666.416 947.943 666.3 949.784 666.649 951.57C626.465 941.351 581.833 946.046 542.62 958.042C541.115 958.502 539.612 959.74 539.295 961.366C534.802 984.407 532.801 1008.04 534.834 1031.47C536.588 1051.7 541.07 1071.52 549.516 1090.04L549.996 1091.09C557.933 1108.25 570.514 1129.4 589.727 1134.78C601.328 1138.03 614.159 1136.12 625.991 1135.52C637.49 1134.94 649.244 1134.86 660.634 1133.05C670.778 1131.44 679.666 1126.89 685.935 1118.65C691.343 1111.53 694.191 1102.93 696.524 1094.37C697.592 1094.71 698.653 1095.08 699.697 1095.48C704.104 1097.21 707.838 1099.98 711.214 1103.25C718.343 1110.16 723.873 1118.54 731.332 1125.13C738.084 1131.09 745.778 1135.73 754.031 1139.3C771.132 1146.69 789.478 1149.64 807.567 1153.56L808.829 1153.83C822.447 1156.82 836.347 1160.49 848.367 1167.58C848.602 1169.66 849.553 1171.63 851.077 1172.92C848.957 1174.91 848.059 1178.06 849.922 1181.02C855.126 1189.28 864.089 1193.97 872.136 1199.26L872.66 1199.6C880.576 1204.85 888.561 1209.99 896.611 1215.03C912.976 1225.28 929.683 1234.96 946.626 1244.22C973.877 1259.1 1001.71 1273.15 1030.05 1285.88C1028.35 1294.25 1028.97 1302.88 1027.69 1311.31L1027.5 1312.51C1026.95 1315.63 1027.69 1318.25 1029.84 1320.29L1030.07 1320.5L1030.07 1320.47L1030.27 1320.66L1030.34 1320.72L1030.31 1320.7C1030.56 1320.93 1030.82 1321.14 1031.08 1321.32L1031.41 1321.53V1321.53C1033.49 1322.79 1036.16 1322.78 1038.28 1321.67L1038.52 1321.53L1038.93 1321.3C1041.74 1319.68 1043.67 1315.68 1042.51 1312.51C1039.65 1304.7 1038.57 1296.37 1035.92 1288.51L1038.02 1289.44V1289.44L1040.78 1290.65C1070.66 1303.57 1103.85 1314.45 1136.4 1305.64C1150.79 1301.75 1164.23 1293.51 1171.43 1280.09C1178.51 1266.89 1179.51 1251.55 1179.89 1236.86C1180.35 1218.73 1179.38 1200.32 1176.99 1182.35C1175.38 1170.28 1173.44 1157.99 1170.45 1146.05C1171.99 1144.69 1173.12 1142.74 1173.42 1140.33C1174.83 1128.92 1172.36 1117.06 1170.85 1105.72C1169.37 1094.64 1167.73 1083.58 1165.88 1072.56C1162.15 1050.3 1157.82 1028.09 1152.77 1006.09C1143.79 966.941 1131.93 928.486 1117.65 890.95L1116.4 887.68C1103.2 853.372 1087.92 819.794 1066.65 789.654C1056.47 775.234 1045.71 762.16 1031.33 751.769C1017.86 742.033 1002.67 735.023 986.985 729.665C971.286 724.303 955.15 720.71 938.729 718.475C922.052 716.205 904.449 714.813 888.892 707.973C890.86 704.445 889.171 699.682 885.859 697.494C874.713 690.13 864.406 680.55 854.416 671.698ZM497.61 991.919C497.143 991.21 496.034 991.658 496.239 992.497C501.66 1014.71 506.749 1036.96 510.072 1059.59C516.071 1100.44 514.967 1141.83 514.477 1182.98L514.452 1185.11C514.2 1207.27 513.85 1229.44 513.117 1251.6C512.747 1262.8 512.015 1274.1 512.413 1285.31C512.63 1291.39 514.25 1297.13 514.824 1303.14C515.327 1308.39 514.879 1313.72 514.628 1318.98C514.46 1322.48 519.62 1322.33 519.971 1318.98L520.42 1314.65C521.003 1309.17 521.723 1303.73 523.519 1298.48C525.678 1292.18 526.714 1285.98 527.463 1279.36C528.61 1269.21 529.12 1258.96 529.563 1248.75L529.866 1241.68C531.715 1198.97 531.65 1156.07 528.657 1113.41L528.438 1110.36C525.474 1070.04 520.331 1026.47 497.61 991.919ZM613.165 737.773C614.581 737.191 614.085 735.05 612.517 735.423L609.665 736.103C588.771 741.107 568.255 746.53 548.753 755.843C529.238 765.161 512.716 779.072 499.588 796.178C474.068 829.429 463.463 869.839 455.091 910.211C445.787 955.072 437.316 1000.1 427.931 1044.94L426.188 1053.3C417.504 1095.07 409.305 1136.86 403.264 1179.12L402.83 1182.19C396.738 1225.65 393.073 1270.62 399.721 1314.19C401.036 1322.81 415.382 1320.67 414.821 1312.15C413.201 1287.53 412.041 1263.03 413.162 1238.35C414.284 1213.67 416.599 1189.1 420.05 1164.63C422.954 1144.04 427.283 1123.71 431.114 1103.28L431.715 1100.05C434.923 1082.68 438.23 1065.32 441.53 1047.97L446.461 1021.98C453.852 983.064 461.388 944.117 469.903 905.449L470.408 903.173C478.741 865.971 491.026 827.002 516.021 797.46C541.386 767.479 577.697 752.38 613.165 737.773ZM705.332 1132.37C704.722 1131.01 702.588 1131.16 701.932 1132.37C699.362 1137.11 699.076 1143.17 698.59 1148.52L698.539 1149.07C697.921 1155.6 697.374 1162.16 697.039 1168.71C696.404 1181.15 696.1 1193.58 696.139 1206.03C696.179 1218.79 696.436 1231.54 697.124 1244.29L697.311 1247.7C697.939 1258.78 698.992 1271.13 704.255 1280.82C706.168 1284.34 711.371 1283.3 712.479 1279.74C716.109 1268.09 714.245 1254.27 713.314 1242.33L712.591 1233.01C711.875 1223.7 711.192 1214.38 710.651 1205.05C709.909 1192.29 709.297 1179.52 708.708 1166.75C708.517 1162.6 708.31 1158.45 708.091 1154.31L707.755 1148.09C707.468 1142.89 707.492 1137.18 705.332 1132.37ZM1113.48 1148.89L1111.87 1147.34C1106.94 1142.51 1100.71 1135.08 1093.41 1135.54C1090.51 1135.72 1088.65 1138.13 1089.26 1141C1090.54 1147.11 1096.78 1150.29 1101.27 1154.02C1106.19 1158.11 1110.83 1162.48 1115.46 1166.89C1119.56 1170.81 1123.51 1174.83 1127.37 1178.98L1128.81 1180.54C1130.19 1182.05 1140.03 1190.95 1138.96 1193.25L1138.9 1193.36C1138.61 1193.8 1139.1 1194.41 1139.59 1194.25C1143.84 1192.91 1143.58 1189.27 1141.97 1185.58C1138.88 1178.49 1133.48 1171.94 1128.76 1165.88C1124.05 1159.84 1118.96 1154.22 1113.48 1148.89V1148.89ZM689.939 971.137C693.224 963.373 705.325 963.536 712.195 964C729.495 965.169 748.213 969.546 763.606 977.632C779.564 986.015 790.314 999.447 799.933 1014.3L800.383 1015C809.758 1029.57 818.787 1046.82 833.467 1056.84C840.944 1061.95 849.675 1066.61 858.747 1068.63C859.37 1069.72 860.379 1070.59 861.702 1070.9L862.317 1071.04C864.901 1071.61 868.915 1072.25 872.382 1071.87C872.359 1073.56 872.377 1075.25 872.334 1076.85C872.212 1081.46 872.16 1086.08 872.16 1090.69C872.158 1100.35 872.677 1110.02 872.274 1119.67C871.917 1128.21 870.711 1137.14 866.611 1144.77C863.604 1150.37 859.635 1154.07 854.844 1157.61C843.058 1150.43 829.731 1146.05 816.205 1142.76C799.847 1138.78 783.098 1136.12 767.112 1130.72C759.418 1128.12 752.021 1124.72 745.319 1120.1C738.206 1115.2 732.773 1108.56 727.183 1102.07L726.309 1101.06C720.604 1094.52 714.379 1088.26 706.317 1084.71C699.374 1081.66 690.223 1081.11 684.152 1076.39C680.978 1073.91 680.712 1070.32 680.378 1066.65C684.266 1067.2 688.382 1066.31 692.257 1065.86L694.264 1065.62C697.929 1065.19 701.509 1064.71 705.116 1063.77C705.786 1063.6 705.786 1062.59 705.116 1062.42C700.853 1061.32 696.628 1060.85 692.257 1060.34L691.23 1060.21C687.276 1059.69 683.119 1058.91 679.241 1059.78C678.545 1057.13 677.54 1054.6 676.13 1052.07C674.151 1048.51 670.406 1044.48 669.9 1040.32C669.749 1039.08 670.038 1037.62 670.623 1036.52L670.824 1036.15C671.07 1035.71 671.361 1035.26 671.788 1034.99C671.835 1035.04 671.935 1035.11 672.152 1035.17C675.137 1036.11 677.741 1034.65 679.123 1032.4C684.99 1033.13 691.393 1032.88 696.895 1033.13L702.458 1033.4C708.402 1033.67 714.616 1033.79 720.202 1032.59C720.982 1032.42 721.218 1031.12 720.437 1030.79C713.57 1027.85 705.24 1026.91 697.888 1025.79C693.782 1025.16 689.646 1024.68 685.528 1024.12C682.786 1023.75 679.876 1023.14 677.035 1022.99C669.912 1014.13 673.75 1000.14 683.663 996.32C687.274 997.907 690.521 996.984 694.466 996.645C698.404 996.307 702.352 996.078 706.306 996.095C714.229 996.13 722.625 998.214 730.471 997.317C731.747 997.17 732.933 995.472 731.664 994.436C725.658 989.535 717.05 987.937 709.427 986.892L707.847 986.681C705.291 986.346 702.183 985.857 698.959 985.566C698.23 984.144 696.922 983.069 694.957 982.802C694.373 982.722 693.786 982.675 693.2 982.625L693.209 982.567V982.567C688.417 982.337 688.625 974.243 689.939 971.137ZM1018.01 1122.56C1018.09 1122.69 1018.19 1122.82 1018.28 1122.94L1018.44 1123.11L1017.65 1122.79L1018.01 1122.56V1122.56ZM606.317 953.788C626.487 951.621 646.686 952.078 666.916 952.66C668.534 957.952 674.166 962.462 679.623 962.632C675.349 969.137 674.908 977.941 677.905 984.84C671.542 987.373 666.06 991.923 662.732 998.403C658.117 1007.39 658.721 1017.38 663.282 1025.68C659.389 1029.21 657.092 1034.93 657.322 1040.33C657.579 1046.34 661.164 1051.48 664.143 1056.46C667.362 1061.84 667.47 1066.59 668.459 1072.62C669.906 1081.45 675.86 1086.8 683.521 1090.14L683.113 1091.75C681.138 1099.43 678.681 1107.55 673.036 1113.17C665.774 1120.4 654.508 1120.33 644.914 1120.79L644.451 1120.81C635.665 1121.25 626.883 1121.77 618.101 1122.27L611.514 1122.63C601.402 1123.19 591.691 1123.26 583.436 1116.57C569.959 1105.66 560.72 1087.6 554.872 1071.61C542.598 1038.06 542.451 1001.23 548.085 966.285C566.98 960.195 586.585 955.908 606.317 953.788ZM774.055 1009.46L773.907 1009.47C769.754 1009.94 766.901 1013.31 765.885 1017.3C764.409 1023.09 765.133 1028.34 761.582 1033.57C757.929 1038.95 755.683 1043.26 755.152 1049.91C754.934 1052.65 755.034 1055.38 754.425 1058.05L753.984 1059.93C753.515 1061.93 753.131 1063.86 753.364 1066.01C753.577 1067.96 754.531 1069.49 756.496 1070.12C762.899 1072.17 767.843 1067.45 769.497 1061.48C770.926 1056.33 769.018 1050.19 771.034 1045.35C772.151 1042.66 774.211 1040.42 775.375 1037.72C776.528 1035.04 777.107 1032.24 777.292 1029.33C777.643 1023.83 772.775 1017.22 775.491 1012.23C776.07 1011.17 775.415 1009.43 774.055 1009.46ZM859.108 952.661C854.772 951.78 849.853 949.761 845.577 951.439C843.379 952.303 842.293 954.983 844.15 956.846C847.374 960.078 852.06 960.258 856.403 961.02L856.785 961.089C861.92 962.039 867.064 962.94 872.215 963.794C881.906 965.399 891.62 966.818 901.368 968.024C911.38 969.263 921.42 970.366 931.474 971.196L935.366 971.516C943.859 972.195 952.696 972.707 961.029 971.406C962.24 971.217 962.045 969.454 961.029 969.145C951.9 966.382 941.886 965.641 932.448 964.472C922.414 963.227 912.397 961.912 902.406 960.352C892.431 958.794 882.469 957.122 872.544 955.274C868.058 954.44 863.579 953.569 859.108 952.661ZM702.654 943.79C706.459 942.443 710.645 940.447 714.768 941.115C721.878 942.267 728.206 949.194 733.834 953.756L731.008 953.207C716.548 950.428 697.401 947.434 685.263 956.627C685.232 956.574 685.208 956.521 685.173 956.468C684.193 954.98 683.058 953.819 681.819 952.546C681.7 952.434 681.586 952.319 681.473 952.202L680.805 951.49L682.334 950.96C685.608 949.803 689.488 948.308 690.101 948.09L690.144 948.075C694.319 946.661 698.499 945.263 702.654 943.79ZM821.455 640.716C822.05 633.063 810.139 633.126 809.549 640.716C808.262 657.286 811.991 673.699 820.017 688.226C820.076 688.332 820.141 688.426 820.203 688.526C815.183 691.138 810.106 693.644 804.916 695.884C798.277 698.75 791.513 701.36 784.628 703.574C778.4 705.578 770.727 706.369 765.491 710.539C754.45 719.331 758.598 737.577 760.722 749.404L761.054 751.271C762.111 757.357 762.876 763.601 760.31 769.442C757.57 775.681 752.029 780.309 747.086 784.773L746.088 785.678C741.709 789.667 736.705 794.515 733.493 799.923C730.561 793.861 726.564 788.907 722.338 783.33C719.323 779.35 721.469 778.038 723.635 774.15C725.72 770.408 726.738 766.419 726.086 762.15C724.883 754.266 718.582 748.571 712.31 744.292C704.903 739.241 696.636 735.499 688.979 730.8C673.245 721.146 657.922 710.108 644.117 697.849C643.736 697.51 643.076 697.954 643.381 698.417C654.286 715.004 667.073 729.337 682.788 741.503C689.161 746.436 695.854 750.528 702.593 754.829L704.531 756.072C707.236 757.825 710.611 760.168 711.834 763.152C713.065 766.153 710.44 768.419 709.027 770.905C704.54 778.799 706.705 786.165 712.025 792.86L712.272 793.169C717.558 799.683 721.564 805.741 723.48 814.063C727.597 831.939 721.863 850.561 715.86 867.343L715.623 868.005C712.376 877.051 708.925 886.031 706.104 895.222L705.328 897.763C702.772 906.219 700.679 914.56 703.546 923.254C704.521 926.211 708.554 926.91 710.229 924.127C716.138 914.313 717.611 902.503 721.315 891.713C724.925 881.197 729.07 870.871 732.557 860.312C737.047 846.717 740.052 832.083 738.421 817.823C738.469 817.74 738.522 817.662 738.562 817.574L739.705 815.074C742.822 808.304 745.832 802.392 751.5 796.996C757.412 791.367 763.829 786.384 768.481 779.57C778.586 764.768 772.337 748.304 771.116 732.12L770.977 730.135C770.755 726.775 770.633 722.208 772.828 719.883C775.297 717.265 781.087 716.597 784.363 715.438C792.829 712.442 801.172 708.951 809.118 704.759C816.682 700.769 824.009 696.361 830.831 691.197L834.289 688.595C839.745 684.479 845.402 679.984 849.058 674.381C849.48 673.736 848.763 672.695 847.999 673.004C841.895 675.481 836.318 679.421 830.607 682.849C830.518 682.64 830.415 682.429 830.298 682.217C823.232 669.429 820.326 655.261 821.455 640.716ZM626.472 728.331C624.04 721.662 612.956 722.177 613.398 730.101C613.737 736.188 616.322 741.683 618.685 747.211L618.937 747.803C621.377 753.562 624.195 758.969 627.567 764.247C634.01 774.337 641.557 783.701 649.618 792.538C656.926 800.55 666.518 805.449 677.571 804.635C682.228 804.292 686.929 803.107 691.01 800.781C695.857 798.017 701.121 789.718 707.305 791.728C707.903 791.922 708.461 791.046 707.944 790.631C700.805 784.882 692.702 793.796 685.867 795.944C675.568 799.179 664.999 795.602 658.37 787.276C651.449 778.583 645.079 768.85 639.262 759.385C636.308 754.579 633.613 749.591 631.285 744.45C628.936 739.261 628.402 733.622 626.472 728.331ZM643.073 687.288C643.373 686.367 642.229 685.491 641.42 686.017C636.729 689.071 632.664 693.106 628.337 696.643C623.536 700.567 618.7 704.411 613.789 708.196C606.63 713.715 614.933 723.875 621.235 717.846C629.859 709.599 639.304 698.815 643.073 687.288ZM668.828 655.009C666.923 647.66 655.651 650.691 657.294 657.954L657.347 658.175C660.458 670.172 656.028 682.385 646.569 690.162L646.22 690.445C640.236 695.234 648.714 703.606 654.639 698.863C667.574 688.511 672.955 670.926 668.828 655.009Z" fill="black"/>
<path fill-rule="evenodd" clip-rule="evenodd" d="M805.514 214.867C653.944 207.414 551.103 326.946 546.679 374.612C543.608 407.699 545.692 451.827 545.692 481.393C545.692 496.485 538.076 542.359 546.679 564.355C565.825 613.314 587.457 651.663 647.394 651.663C707.331 651.663 798.703 620.598 830.078 580.531C835.807 573.215 906.992 519.665 906.992 477.572C906.992 387.767 913.665 220.186 805.514 214.867Z" fill="white"/>
<path fill-rule="evenodd" clip-rule="evenodd" d="M908.914 117.873C900.276 115.173 894.763 119.06 890.83 125.082C889.963 124.913 889.124 124.924 888.19 125.149C887.959 125.205 887.4 125.416 886.977 125.582C886.65 125.719 886.355 125.885 886.071 126.061L885.902 125.972V125.972C885.254 125.265 884.573 124.62 883.838 124.1C882.186 122.932 880.484 122.592 878.869 122.832L878.121 122.557V122.557C871.727 120.329 864.795 121.363 860.46 126.871C859.621 127.935 858.943 129.12 858.364 130.37C857.064 130.796 855.844 131.412 854.793 132.17C854.055 131.823 853.275 131.531 852.44 131.316C847.723 130.106 842.767 131.248 838.923 134.14C837.051 135.547 835.674 137.309 834.63 139.321C833.441 139.6 832.266 140.102 831.165 140.776C830.219 140.305 829.258 139.863 828.273 139.56C824.672 138.454 820.809 138.047 817.061 138.326C808.985 138.924 801.174 148.149 806.572 156.071L806.739 156.311C807.424 157.266 808.02 158.253 808.572 159.256C806.639 160.097 804.777 161.222 803.057 162.632C794.644 169.527 793.887 180.157 795.46 190.184L795.527 190.602H795.507C791.037 191.026 787.178 195.695 789.819 200.086L789.947 200.292C793.522 205.815 796.586 211.916 800.001 217.728C809.452 221.135 818.565 225.331 827.146 230.415C832.491 235.097 837.58 240.047 842.057 245.554C844.292 248.304 846.345 251.215 848.232 254.233C846.723 254.958 844.857 254.921 843.281 253.461C829.262 240.47 812.325 231.353 794.291 225.243C792.992 224.802 792.14 223.972 791.662 222.99C783.656 220.709 775.509 218.94 767.281 217.688C765.013 215.527 762.637 213.461 760.379 211.309C757.496 208.563 753.885 208.603 751.187 210.328C749.847 209.717 748.477 209.177 747.085 208.693L746.222 208.399C745.862 208.281 745.518 208.144 745.164 208.036C735.509 205.084 726.68 206.18 717.183 208.605L715.967 208.922C711.54 210.096 708.754 209.908 704.467 208.827L703.984 208.704C699.429 207.516 694.557 206.636 689.901 207.887C685.03 209.196 681.798 212.108 678.479 215.626L678.147 215.98C676.599 217.636 675.704 217.817 673.677 217.776L671.506 217.712C663.312 217.487 655.288 217.833 649.15 224.171C646.882 226.514 644.447 229.831 642.986 232.859L642.774 233.311C642.706 233.458 642.646 233.581 642.59 233.691C641.71 233.549 640.34 232.992 639.688 232.865C630.758 231.133 623.307 233.802 617.572 240.839C616.318 242.379 614.423 245.403 613.11 247.065C612.65 247.455 612.216 247.873 611.805 248.312C609.652 249.687 606.601 249.6 604.187 250.082C597.608 251.392 590.576 253.894 587.231 260.155C585.833 262.768 585.316 265.627 584.726 268.483C582.514 269.936 580.781 272.03 579.435 274.297C577.799 277.049 577.103 280.42 575.219 283.019C573.851 284.907 571.76 285.915 569.771 287.069L569.012 287.515C563.117 291.025 558.502 294.92 556.561 301.797L556.393 302.408C556.079 303.462 554.974 306.468 555.936 306.017C555.107 306.474 553.699 306.635 552.943 306.885C548.854 308.238 545.299 310.424 543.121 314.263C541.464 317.184 541.163 320.23 540.688 323.451L540.486 324.752C540.435 325.066 540.373 325.432 540.309 325.786L540.245 326.135L540.233 326.143C539.492 326.463 538.765 326.81 538.05 327.184C534.661 329.179 532.344 332.642 532.344 336.651C532.344 338.597 532.952 340.113 533.837 341.466C533.121 342.55 532.567 343.705 532.148 344.992C531.326 347.505 531.269 350.253 531.545 352.853C531.877 355.973 532.678 358.814 533.621 361.794C533.984 362.944 534.131 364.551 534.678 365.649C533.669 366.936 533.067 368.509 533.254 370.061C533.521 372.281 534.534 374.876 536.545 376.121C537.528 380.971 539.644 385.927 541.727 389.892C541.967 390.352 542.257 390.762 542.577 391.102C542.287 406.932 543.447 422.873 543.527 438.682C543.617 455.892 543.257 473.113 542.657 490.302C541.647 518.792 538.037 548.252 546.447 576.033C553.327 598.772 567.108 618.292 585.587 633.092C604.507 648.232 627.316 656.993 651.537 658.363C663.857 659.052 676.387 657.652 688.307 654.462L689.581 654.116C701.113 650.948 714.471 646.108 722.957 637.632C727.437 633.152 722.907 623.663 716.337 626.272C709.827 628.863 703.986 632.692 697.527 635.392C691.757 637.802 685.736 639.652 679.637 641.012C667.407 643.762 654.437 644.363 642.007 642.652C597.127 636.512 562.157 599.243 555.257 555.052C553.348 542.814 553.383 530.375 553.512 518.009L553.654 504.459C553.763 493.124 553.804 481.783 553.387 470.453C552.857 455.873 551.827 441.302 550.447 426.783L549.728 419.228C548.875 410.387 547.914 401.48 546.257 392.762C547.614 392.833 558.321 374.517 564.263 364.282C566.432 362.562 568.263 360.425 568.97 357.66C569.117 357.083 569.193 356.501 569.239 355.918C570.529 353.891 571.89 351.916 573.326 350L573.64 349.859C573.881 349.749 574.068 349.658 574.178 349.596C577.312 347.819 579.929 345.127 581.72 342.007C582.324 340.955 582.819 339.857 583.221 338.734C585.776 336.227 588.449 333.835 591.257 331.592C591.533 331.372 591.818 331.166 592.096 330.949C595.671 329.615 598.809 327.605 601.097 324.71C602.053 324.118 603.016 323.538 603.987 322.97C606.901 322.943 609.845 322.264 612.709 321.087C617.949 318.935 622.134 314.682 627.398 312.711C632.965 310.628 638.83 315.362 644.745 314.508C646.255 314.29 647.752 313.831 649.144 313.165C652.475 316.693 656.01 320.019 659.907 322.93C665.564 327.156 671.348 329.087 677.905 330.996C681.154 334.079 684.792 337.068 689.179 337.507C699.332 345.623 710.191 352.469 721.617 358.825C723.455 359.847 725.282 360.308 727.016 360.32C730.6 362.57 734.512 364.301 738.645 365.499C739.94 365.874 741.275 365.953 742.588 365.792L746.174 368.713V368.713C748.67 370.745 751.332 371.716 753.879 371.779C755.429 372.966 757.035 374.089 758.688 375.169C760.459 376.328 762.756 376.808 765.064 376.668C768.589 380.116 773.16 380.478 776.988 378.89C777.514 379.198 778.055 379.49 778.663 379.777C779.489 380.168 780.351 380.498 781.23 380.765C785.222 385.067 791.065 387.323 796.92 386.733C801.292 389.411 806.381 390.804 811.356 390.491C812.115 394.303 812.743 398.129 813.274 401.968L813.329 404.78C813.334 405.235 813.335 405.591 813.329 405.825L813.326 405.918C812.839 418.247 812.573 430.582 812.092 442.913L812.048 443.886C811.501 454.659 808.85 474.3 824.685 473.873C830.586 473.713 836.441 469.368 841.036 465.795L841.683 465.291C842.035 465.017 842.396 464.736 842.759 464.45C846.193 464.004 849.579 463.169 853.047 463.042C857.327 462.892 861.827 463.332 865.997 464.302C873.357 466.012 880.477 469.363 885.277 475.432C885.697 475.962 886.087 476.522 886.457 477.082C886.797 478.232 887.377 479.292 888.147 480.212C892.687 490.422 890.066 503.913 885.047 513.252C879.067 524.376 869.604 532.067 857.704 535.941L857.107 536.132C848.977 538.672 845.867 543.592 841.447 550.432C837.307 556.852 832.557 562.832 827.457 568.512C817.587 579.502 803.736 588.573 797.997 602.482C796.837 605.283 800.157 607.922 802.727 607.203C812.797 604.373 819.857 597.203 827.177 590.073C832.243 585.135 837.115 579.999 841.686 574.604C842.645 575.047 843.7 575.345 844.799 575.479C849.649 576.071 854.651 575.825 858.897 573.211C860.854 573.389 862.893 572.71 864.407 571.323C865.796 570.047 866.994 568.667 868.006 567.198C869.544 567.333 871.054 567.374 872.495 567.135C873.19 567.07 873.863 566.887 874.48 566.587C875.626 566.134 876.713 565.436 877.711 564.365C879.733 562.195 880.508 559.129 880.135 556.215C880.535 556.131 880.932 556.028 881.324 555.895C884.016 554.984 886.088 553.175 887.412 550.713C889.781 549.384 891.914 547.582 893.529 545.668C895.496 543.339 896.98 540.714 897.852 537.815C898.753 537.396 899.628 536.911 900.466 536.343C906.471 532.28 909.909 524.652 907.551 517.599L907.471 517.377C907.351 517.059 907.135 516.518 906.869 515.908C906.907 515.411 906.947 514.914 906.974 514.416L907.057 512.914V512.914L908.26 512.403V512.403C914.26 510.017 918.316 506.796 919.037 500.045C919.187 498.649 918.645 497.225 917.79 496.035L917.794 495.661V495.661C918.184 495.459 918.555 495.252 918.882 495.044C922.153 492.955 924.163 489.211 923.938 485.339C923.732 481.809 921.776 478.995 919.578 476.393L918.95 475.664C918.898 475.605 918.84 475.539 918.777 475.468L920.23 475.01C921.173 474.71 922.037 474.412 922.658 474.064C925.062 472.717 927.1 470.896 928.357 468.582C928.54 468.295 928.726 468.013 928.894 467.707C930.517 464.746 930.729 460.952 929.682 457.773C929.558 457.398 929.398 457.045 929.234 456.694C933.654 455.136 937.057 451.916 937.467 445.982C937.628 443.648 937.117 441.323 936.006 439.332C936.252 437.991 936.303 436.601 936.144 435.226C937.699 433.757 938.907 431.987 939.447 429.828C940.468 425.749 938.599 421.868 935.821 418.309C936.849 415.495 936.902 412.32 935.728 409.487C936.18 408.073 936.437 406.578 936.451 405.043C936.482 401.644 935.435 398.805 933.744 396.39C936.121 393.484 937.25 389.622 935.846 386.003C934.847 383.431 933.705 381.078 932.389 378.898C933.08 377.24 933.482 375.383 933.482 373.304C933.482 369.564 932.08 366.601 929.935 364.176C930.866 359.747 928.973 354.353 924.847 352.403C923.292 351.667 921.21 350.899 918.916 350.301C918.055 347.611 917.156 344.932 916.207 342.272C914.712 338.085 913.104 333.956 911.4 329.875C912.381 330.734 913.41 331.535 914.474 332.261C917.839 336.539 922.3 340.245 926.049 342.462C933.481 346.858 941.981 344.25 945.65 336.895C949.098 339.469 953.236 340.993 957.651 340.472C962.657 339.881 967.234 336.639 968.484 331.582C968.665 330.85 968.774 330.059 968.785 329.263C971.656 331.307 974.66 333.188 977.955 334.265C982.152 335.637 986.436 332.346 986.99 328.246C987.209 326.621 986.905 325.185 986.258 323.972L986.668 323.81C986.736 323.782 986.804 323.752 986.871 323.721C989.072 322.69 990.781 320.8 991.593 318.62C996.359 320.464 1001.82 318.303 1003.33 313.062C1005.13 306.832 1005.24 300.522 1003.83 294.453C1008.88 290.783 1012.17 284.613 1012.73 278.163C1013.14 273.533 1012.03 269.259 1010.08 265.307C1014.86 263.521 1016.5 257.261 1014.23 252.751C1017.25 251.025 1019.21 247.366 1019.26 243.804C1020.6 241.764 1021.04 239.137 1019.92 236.193C1018.45 232.314 1015.45 229.069 1012.01 226.524C1013.51 223.916 1014.62 221.072 1015.31 218.133C1018.16 217.3 1020.46 214.998 1020.92 211.541C1021.51 207.207 1018.66 203.533 1014.82 202.563C1014.39 201.243 1013.87 199.952 1013.23 198.712C1015.13 194.212 1014.85 188.522 1012.4 183.602C1010.23 179.252 1006.7 176.592 1002.45 174.752C1003.53 171.052 1002.1 167.362 998.497 164.612C994.102 161.251 989.282 158.682 984.217 156.867C984.667 150.844 982.149 144.676 976.198 142.576C974.607 142.015 972.951 141.808 971.268 141.815C970.046 139.158 968.007 136.998 965.346 135.086C961.319 132.194 953.794 133.96 951.561 138.496L951.452 138.729C951.338 138.986 951.215 139.221 951.098 139.47C950.648 137.268 949.596 135.188 947.905 133.483C943.678 129.22 939.215 129.14 934.92 130.963C934.132 129.009 933.178 127.151 932.018 125.452C927.807 119.288 920.85 118.503 915.756 121.841C913.714 120.046 911.435 118.662 908.914 117.873ZM878.806 488.542C870.327 485.222 860.037 486.203 851.657 489.392L851.043 489.63C843.642 492.557 831.617 499.066 830.167 507.392C829.417 511.703 833.516 515.432 837.677 513.163C841.297 511.192 843.327 507.222 846.207 504.342C849.056 501.493 852.247 499.203 855.726 497.192C862.986 493.002 870.617 491.372 878.806 490.163C879.726 490.033 879.476 488.802 878.806 488.542Z" fill="black"/>
<path fill-rule="evenodd" clip-rule="evenodd" d="M648.958 582.159C656.325 584.292 664.232 584.483 671.741 582.28C678.552 580.281 685.545 575.882 690.558 570.062C695.011 564.891 697.895 558.608 697.781 551.901C697.768 551.135 697.494 550.495 697.073 549.999C696.62 549.465 695.986 549.098 695.307 548.939C694.609 548.775 693.871 548.833 693.243 549.119C692.674 549.377 692.187 549.816 691.882 550.457C691.112 551.469 690.345 552.466 689.574 553.435C683.38 561.084 677.382 566.799 668.068 568.849C663.015 569.962 657.968 569.469 653.337 567.771C648.38 565.954 643.898 562.76 640.387 558.671C638.8 556.824 636.926 556.07 635.094 556.057C633.018 556.043 630.966 557.007 629.421 558.549C627.901 560.065 626.884 562.124 626.791 564.279C626.71 566.17 627.327 568.145 628.968 569.907C634.373 575.711 641.379 579.964 648.958 582.159ZM649.186 486.367C641.634 490.957 630.128 501.66 638.252 513.04C647.814 523.073 661.581 511.569 668.366 506.366C674.657 502.334 681.725 512.704 675.888 517.413C626.864 553.708 606.969 487.567 645.366 480.97C649.594 480.243 651.164 484.947 649.186 486.367ZM719.825 466.17C722.252 464.618 725.107 464.085 728.271 465.525C730.744 466.649 735.081 470.398 738.099 475.325C740.164 478.697 741.628 482.651 741.323 486.771C741.252 487.728 741.606 488.433 742.163 488.955C742.604 489.367 743.24 489.669 743.987 489.764C744.621 489.844 745.331 489.772 745.909 489.592C747.007 489.249 747.588 488.536 747.807 487.955C749.92 482.343 749.01 476.08 746.642 470.43C743.445 462.805 737.641 456.418 733.838 454.358C727.33 450.833 719.653 450.671 713.136 454.262C707.589 457.319 704.12 462.253 700.67 467.283C699.936 468.353 699.209 469.414 698.456 470.457C696.949 472.546 696.799 474.619 697.382 476.396C698.029 478.364 699.678 480.025 701.741 480.895C703.647 481.699 705.859 481.812 707.817 480.986C709.471 480.288 710.988 478.929 711.949 476.622C713.566 472.736 716.261 468.45 719.825 466.17V466.17ZM596.559 474.814C598.221 475.68 599.522 475.942 601.366 475.389C602.385 475.083 603.393 474.496 604.182 473.707C604.964 472.925 605.528 471.953 605.748 470.874C606.287 468.211 607.744 465.719 609.819 464.095C611.594 462.706 613.833 461.97 616.317 462.385C618.998 462.833 621.551 464.552 623.31 466.579C623.898 467.257 624.359 468.027 624.822 468.792C625.689 470.223 626.531 471.553 627.726 472.603C628.179 473.003 628.862 473.28 629.523 473.28C629.792 473.28 630.065 473.236 630.324 473.155C632.992 470.478 633.505 468.446 633.419 466.431C633.329 464.319 632.496 462.179 631.15 460.184C627.992 455.502 621.997 451.663 617.952 450.793C612.411 449.603 606.909 451.032 602.497 454.126C597.958 457.31 594.595 462.254 593.546 467.825C593.294 469.167 593.401 470.615 593.912 471.871C594.411 473.098 595.281 474.149 596.559 474.814ZM707.606 416.253C710.931 419.492 714.866 419.994 718.847 420.44C721.059 420.691 722.825 420.892 724.563 421.284C729.339 422.363 734.061 423.986 738.368 426.325C742.871 428.77 747.778 431.718 751.308 435.495C752.147 436.394 752.938 437.337 753.731 438.282C754.453 439.144 755.149 439.974 755.883 440.774C756.725 441.693 757.525 442.656 758.321 443.617C758.813 444.427 758.91 444.627 759.01 444.834C759.159 445.146 759.332 445.495 759.53 445.869C759.802 446.382 760.119 446.943 760.452 447.452C761.006 448.383 761.303 448.639 761.56 448.753C761.986 448.943 762.39 449.037 762.782 448.986C763.149 448.939 763.496 448.762 763.838 448.473C765.545 447.031 766.048 444.664 765.996 442.151C765.918 438.338 764.512 434.117 763.215 431.522C760.201 425.492 756.021 419.224 750.994 414.724C745.258 409.587 738.982 405.698 731.774 403.018C727.295 401.352 722.109 399.823 717.229 400.016C713.716 400.155 710.363 401.199 707.593 403.807C705.893 405.408 705.076 407.685 705.076 409.96C705.076 412.28 705.924 414.615 707.606 416.253ZM589.797 445.918C590.008 446.264 590.301 446.503 590.627 446.646C590.968 446.797 591.349 446.84 591.715 446.778C592.079 446.717 592.425 446.552 592.7 446.3C592.963 446.058 593.163 445.737 593.253 445.345C595.46 435.649 599.747 428.435 608.896 423.784C613.396 421.495 618.571 420.041 623.47 418.882C624.894 418.545 626.398 418.327 627.913 418.106C632.661 417.412 637.443 416.619 640.538 412.781C642.403 410.469 643.186 407.513 642.744 404.809C642.327 402.263 640.839 399.929 638.135 398.53C631.402 395.049 623.036 398.465 616.237 401.374C615.733 401.59 615.238 401.802 614.754 402.007C608.105 404.813 602.041 408.517 597.056 413.815C593.101 418.018 589.437 424.231 587.961 430.623C586.733 435.94 587.022 441.369 589.797 445.918Z" fill="black"/>
</svg>
